<?xml version="1.0" encoding="UTF-8" standalone="no"?>
<!DOCTYPE svg PUBLIC "-//W3C//DTD SVG 1.1//EN"
"http://www.w3.org/Graphics/SVG/1.1/DTD/svg11.dtd">


<!-- Page 1 -->
<svg x="0" y="0" width="546" height="67" viewBox="0 0 546 67" version="1.1" xmlns="http://www.w3.org/2000/svg" xmlns:xlink="http://www.w3.org/1999/xlink"
style="display: block;margin-left: auto;margin-right: auto;">
<defs>
<clipPath id="c0_1"><path d="M.1,67.2V.6H545.9V67.2Z" /></clipPath>

<style type="text/css"><![CDATA[

.g0_1{
fill: #A90332;
}

]]></style>

</defs>
<path d="M0,0
L0,67
L546,67
L546,0 Z " 
fill="#FFFFFF" stroke="none" />
<g clip-path="url(#c0_1)">
<path d="M392.6,29.3h12.3c0,-3.8,-.7,-8,-6.1,-8c-5.1,0,-6.1,4.7,-6.2,8Zm7.6,20.9c-9.4,0,-14.6,-5.5,-14.6,-15.4c0,-1.7,.4,-16.9,14.7,-16.9c4.3,0,8,1.7,9.8,4.7c1.8,2.9,2.1,5.9,2.1,8.4v1.7H392.5c0,1.6,.1,2.8,.3,3.9c1.1,6.1,4.5,9,10.4,9c3.3,0,5.4,-.7,7.4,-1.8l.9,1.5c-2.2,2.9,-6.4,4.9,-11.3,4.9ZM297.7,19.7c1.6,.2,4,0,6.3,-.4c2,-.3,2.7,-.6,4.2,-1.4l.6,.4v2.5c1.6,-1.2,4.8,-3,9.1,-3c5.6,0,9.3,2.6,10.3,7.4c.3,1.2,.4,4,.4,5.6v9.1c0,5.2,.2,6.6,1.2,7.5c.5,.5,1.6,.9,3,.9v1.5c-2,-.1,-5.5,-.3,-7.7,-.3c-2.9,0,-6.1,.1,-7.8,.3V48.4c1.5,-.2,2.6,-.6,3.1,-1.2c.9,-.9,1.1,-2.7,1.2,-6.6c.1,-1.1,.1,-3.6,.1,-5.4c0,-2.3,0,-4.7,-.3,-7.1c-.4,-4,-2.6,-5.9,-6.6,-5.9c-2.8,0,-4.5,.6,-5.9,1.3V39.9c0,5.2,.2,6.6,1.2,7.5c.5,.5,1.7,.9,3,.9v1.5c-2.5,-.1,-5.6,-.3,-7.6,-.3c-4.2,0,-5.5,.1,-7.9,.3V48.3c1.3,0,2.6,-.5,3.4,-1.3c.9,-1.1,1,-3.7,1,-9V29c0,-3.8,-.1,-5.5,-.6,-6.3c-.5,-.7,-1.5,-1.2,-3.7,-1.2V19.7Zm68.8,-1.2c-.6,0,-2,0,-2.8,.1c-1.6,.1,-3.4,.1,-4.6,.1c-2.3,0,-5.7,-.2,-6.7,-.3v1.9c.3,0,2.1,-.2,3,1.8c.4,.8,.7,1.6,.8,1.8c.2,.4,.4,1,.5,1.1l10,25.4l3.1,-.6L380.9,24.9c.1,-.1,.2,-.4,.4,-.7c.1,-.4,.3,-.7,1,-2c.7,-1.3,2.1,-2,3.2,-1.9l.1,-1.9c-1.3,.1,-4,.3,-6.1,.3c-1.1,0,-2.1,0,-3.2,-.1c-.7,0,-2.1,-.1,-2.8,-.1v1.7c1,0,2.1,.4,2.6,.9c.3,.2,.5,.8,.5,1.2c0,.7,-.1,1.2,-.8,3.1l-6,15c-.3,-.9,-.7,-2.2,-1.3,-3.7L364.2,25.4c-.6,-1.7,-.8,-2.3,-.8,-3.1c0,-.4,.1,-.8,.4,-1.1c.6,-.7,1.6,-1,2.7,-1V18.5ZM509,46.6c-1,1.2,-3.4,3.6,-8.5,3.6c-4.8,0,-7.5,-1.7,-8.7,-5.6c-.5,-1.5,-.5,-4.5,-.5,-6.4c0,-5,.1,-9,.1,-13.6V22.4h-4.1V21.2c1.7,-.7,2.8,-1.3,3.9,-2.2c2.5,-1.8,4,-4.2,5.9,-7.5h1.3v7H509v3.9H498.4V38.8c0,4.9,.9,7.7,5.6,7.7c2.1,0,3.6,-.7,4.5,-1.2l.5,1.3Zm-66.1,2.1c0,-3.3,-.2,-6.6,-.4,-8.3h2c.1,1.8,.5,3.1,1.4,4.1c1.2,1.5,2.7,2.1,5.5,2.1h.4c3.4,0,5.2,-1.5,5.2,-4.3c0,-2.4,-1.5,-3.3,-4,-4.9l-4.5,-2.8c-2.3,-1.4,-5,-3.6,-5,-7.9c0,-3.6,1.5,-6.2,4.4,-7.7c2,-1,4.8,-1.1,6.3,-1.1c2.6,0,6.2,.3,8.2,.8c-.1,.8,-.2,3,-.2,3.7c0,.7,.1,3.7,.2,4.2h-2.1c0,-1.3,-.3,-2.6,-1.2,-3.6c-.7,-1,-2.6,-1.8,-4.9,-1.8c-3.2,0,-4.8,1.3,-4.8,4c0,2.2,1.7,3.2,3.2,4.1l.1,.1l4.2,2.5c2.8,1.6,6.4,3.7,6.4,8.7c0,8.3,-7.5,9.5,-12,9.5c-2.8,0,-5.5,-.4,-8.4,-1.4ZM476.1,12.4c-2.4,0,-4.1,-1.6,-4.1,-3.9c0,-2.4,1.7,-4,4.2,-4c2.5,0,4.1,1.5,4.1,3.9c0,2.4,-1.7,4,-4.2,4Zm-7.7,35.9c1.7,-.2,2.8,-.4,3.6,-1.3c1,-1.1,1,-3.6,1,-9V29c0,-3.8,-.1,-5.7,-.6,-6.6c-.5,-.7,-1.4,-1,-3.6,-1.1V19.5c1.3,.2,4.6,-.1,7.2,-.7c1.3,-.2,2.6,-.6,3.5,-1.1l.6,.7c-.2,2,-.2,6.6,-.2,12.4v9.1c0,4.2,.1,6.1,.7,6.9c.5,.8,1.9,1.4,3.8,1.5v1.5c-1.9,-.1,-5.1,-.3,-7.9,-.3c-3.1,0,-6.4,.1,-8.1,.3V48.3ZM343,12.4c-2.4,0,-4.1,-1.6,-4.1,-3.9c0,-2.4,1.7,-4,4.2,-4c2.5,0,4.1,1.5,4.1,3.9c0,2.4,-1.7,4,-4.2,4Zm-7.7,35.9c1.7,-.2,2.8,-.4,3.6,-1.3c1,-1.1,1,-3.6,1,-9V29c0,-3.8,0,-5.7,-.6,-6.6c-.5,-.7,-1.4,-1,-3.6,-1.1V19.5c1.3,.2,4.6,-.1,7.2,-.7c1.4,-.2,2.6,-.6,3.5,-1.1l.6,.7c-.1,2,-.2,6.6,-.2,12.4v9.1c0,4.2,.1,6.1,.7,6.9c.5,.8,1.9,1.4,3.8,1.5v1.5c-1.9,-.1,-5.1,-.3,-7.9,-.3c-3.1,0,-6.4,.1,-8.1,.3V48.3Zm-60.1,1.9c-8.9,0,-14,-2.7,-16.1,-8.7c-1,-3,-1,-6.6,-1,-9.7V15c0,-5.1,-.2,-5.9,-1.2,-6.7c-.4,-.4,-1.5,-.9,-3,-.9V5.6c2.1,.3,5.6,.3,7.8,.3c3.6,0,5.6,-.1,7.9,-.3V7.4c-1.4,0,-2.5,.4,-3.3,1.3c-1,1,-1.1,3,-1.1,8.3V31.8c0,8.8,.8,14.5,10.9,14.5c10,0,10.7,-5.9,10.7,-14.9V15c0,-5.1,-.2,-5.9,-1.2,-6.7c-.5,-.5,-1.7,-.9,-3,-.9V5.7c2,0,4.5,.2,6.9,.2c2.3,0,4.7,0,7.5,-.3V7.4c-1.5,0,-2.6,.4,-3.4,1.3c-1,1.1,-1.1,3,-1.1,8.3V29.5c0,4,0,8.5,-1.2,12.1c-2.2,5.9,-7.3,8.6,-16.1,8.6ZM415.6,19.6c2.1,.1,4.4,-.1,6.8,-.5c1.8,-.4,3,-.8,3.7,-1.1l.6,.3V21c1.5,-1.4,3.8,-2.9,7.2,-2.9c2.4,0,4.1,.7,5.4,1.9v1l-2.6,4.8h-1.3C434.6,24.4,433,23,430.2,23c-1.3,0,-2.4,.3,-3.4,1V39.8c0,4.1,.1,6,.7,6.8c.8,1.3,3.4,1.5,4.9,1.4v1.8c-2.1,-.1,-5.8,-.3,-8.5,-.3c-3,0,-6,0,-8.5,.3V48.2c1.8,-.1,2.7,-.5,3.4,-1.3c1,-1.1,1,-3.7,1,-9V29c0,-3.9,0,-5.5,-.6,-6.3c-.5,-.8,-1.6,-1.2,-3.6,-1.2V19.6Zm111.3,.6c-.9,0,-1.9,.3,-2.5,.8c-.6,.4,-.7,1.1,-.7,1.5c0,.8,.3,1.5,.8,3l4.6,12.2c.7,1.8,1.2,3.4,1.5,4.4l5.6,-16.6c.7,-2,.8,-2.4,.8,-3.1c0,-.4,-.3,-.9,-.6,-1.2c-.5,-.6,-1.5,-.9,-2.6,-.9V18.5c.7,0,2.2,0,2.9,.1c.6,0,1.9,.1,3,.1c2.1,0,5,-.1,6.2,-.3v1.9c-.8,.1,-2.8,-.2,-4.3,4.6l-12,32c-1.7,4.6,-3.9,10.3,-12.3,10.3c-3.3,0,-5.8,-.8,-7.5,-2.5v-.8l3,-3.6l.8,-.1c.9,2,2.5,2.8,4.8,2.8c3.8,0,5.4,-3.3,8,-10.2l.8,-1.9L517,24.9c-.1,-.2,-.3,-.6,-.4,-1c-.3,-.7,-.8,-1.9,-.8,-1.9c-.6,-1.2,-1.8,-1.8,-3.1,-1.7V18.4c1.9,.2,5.2,.3,7,.3c1.1,0,2.8,0,4.3,-.1c.8,-.1,2.2,-.1,2.9,-.1v1.7ZM50.5,46.7c-1,1.1,-3.4,3.6,-8.5,3.6c-4.8,0,-7.5,-1.8,-8.7,-5.6c-.5,-1.6,-.5,-4.6,-.5,-6.4c0,-5,.1,-9,.1,-13.6L33,22.5H28.8V21.3c1.7,-.7,2.8,-1.4,3.9,-2.2c2.5,-1.9,4,-4.2,5.9,-7.5h1.3v7H50.6v3.9H39.9V38.9c0,4.9,.9,7.7,5.6,7.7c2.1,0,3.6,-.7,4.5,-1.2l.5,1.3Zm170.9,-.9c2.1,0,3.6,-.3,5.1,-1.3V23.6c-.5,-.5,-2.4,-2.1,-6.2,-2.1c-6.1,0,-9.1,4.2,-9.1,12.8c0,3.6,1.1,11.5,10.2,11.5ZM222.5,2.4c1.8,0,4.3,-.4,7.3,-.9c1.7,-.3,2.8,-.6,3.4,-.8l.5,.3c-.2,2.6,-.2,8.4,-.2,12.5V39c0,3.8,0,6.1,.6,6.9c.5,.7,1.6,1.2,3.6,1.2v1.7c-2,0,-4.3,.2,-6.7,.6c-1.6,.3,-2.9,.5,-3.5,.9l-.9,-.3V47.3c-1.5,1.2,-4.6,3,-8.7,3c-8.6,0,-14.1,-6,-14.1,-15.2c0,-3,.6,-5.9,1.7,-8.4c2.6,-5.7,8,-8.9,14.9,-8.9c2.5,0,4.8,.3,6.1,.6V11.7c0,-3.9,0,-5.9,-.6,-6.8c-.5,-.6,-1.1,-.9,-3.4,-1.1V2.4Zm-44,17.2c2.1,.2,4.4,-.1,6.8,-.5c1.9,-.4,3.1,-.8,3.7,-1.1l.6,.3V21c1.5,-1.4,3.9,-2.9,7.2,-2.9c2.5,0,4.1,.7,5.5,1.9v1l-2.7,4.9h-1.3C197.5,24.4,196,23,193.1,23c-1.3,0,-2.4,.4,-3.4,1V39.8c0,4.1,.2,6,.7,6.9c.9,1.3,3.5,1.4,4.9,1.4v1.7c-2.1,-.1,-5.8,-.3,-8.5,-.3c-3,0,-6,0,-8.4,.3V48.2c1.7,0,2.7,-.5,3.3,-1.3c1,-1.1,1.1,-3.6,1.1,-8.9V29c0,-3.8,-.1,-5.5,-.7,-6.3c-.5,-.7,-1.6,-1.1,-3.6,-1.2V19.6Zm-18.6,1.7c-1.9,0,-3.4,.5,-4.5,1.5c-2.5,2.1,-3.8,5.9,-3.8,11.3c0,2.1,.4,12.6,8.1,12.6c1.9,0,3.3,-.4,4.4,-1.4c2.6,-2.1,3.8,-5.9,3.8,-11.4c0,-2.1,-.4,-12.6,-8,-12.6Zm-.4,29.1c-9.6,0,-15.3,-6,-15.3,-15.9c0,-7.8,4.2,-16.8,15.9,-16.8c9.6,0,15.2,6,15.2,15.9c0,7.7,-4.1,16.8,-15.8,16.8Zm-36,-2.1c1.3,0,2.6,-.5,3.4,-1.3c1,-1.1,1,-3.7,1,-9V22.4h-4.1V20.7c1.8,-.7,3.3,-1.5,4.1,-2.1c0,-2.8,.1,-6.4,.5,-8.3C129.6,3.9,133.8,.6,140.9,.6c3.1,0,6.1,1,7.9,2.6l.1,.6l-3.1,4.3H145c-1,-2.6,-2.6,-4,-5.4,-4c-1,0,-2.3,.3,-3.2,1.1c-1.3,1.3,-1.5,3.3,-1.5,7.3v6.1h6.9v3.8h-6.9V39.8c0,4.1,.1,6.1,.6,6.9c.9,1.3,3.7,1.5,5,1.4v1.7c-2.3,-.1,-5.8,-.3,-8.5,-.3c-3.9,0,-6.4,.1,-8.5,.3V48.3ZM84.7,19.7c1.6,.2,3.9,0,6.3,-.4c2,-.3,2.7,-.6,4.1,-1.4l.7,.4v2.5c1.5,-1.2,4.7,-3,9,-3c5.6,0,9.3,2.6,10.4,7.4c.3,1.2,.4,4,.4,5.6v9.1c0,5.2,.2,6.6,1.2,7.5c.4,.5,1.6,.9,3,.9v1.5c-2,-.1,-5.6,-.3,-7.7,-.3c-2.9,0,-6.1,.1,-7.9,.3V48.4c1.6,-.2,2.6,-.6,3.2,-1.2c.9,-.9,1,-2.7,1.2,-6.6c0,-1.1,0,-3.6,0,-5.4c0,-2.3,0,-4.7,-.2,-7.1c-.5,-4,-2.6,-5.9,-6.6,-5.9c-2.9,0,-4.6,.6,-5.9,1.3V39.9c0,5.2,.2,6.6,1.2,7.5c.5,.5,1.7,.9,3,.9v1.5c-2.6,-.1,-5.7,-.3,-7.7,-.3c-4.1,0,-5.5,.1,-7.9,.3V48.3c1.4,0,2.7,-.5,3.4,-1.3c1,-1.1,1,-3.7,1,-9V29c0,-3.8,0,-5.5,-.6,-6.3C87.9,22,86.8,21.5,84.7,21.5V19.7ZM.2,48.4c0,-3.1,.1,-5.8,-.2,-9H1.9c0,2,.5,3.4,1.4,4.4c1.3,1.5,4.4,2.4,7.2,2.4c6,0,8.8,-2.2,8.8,-7.1c0,-4.1,-2.6,-5.8,-6.1,-8.2l-.6,-.4L8.9,28C3.7,24.5,1,21.8,1,16.3C1,13.6,2,4.8,15.1,4.8c3.3,0,7.7,.3,10.3,.8c0,.4,-.1,2.5,-.1,4.1c0,2,0,2.7,.1,5.1H23.8c0,-2.2,-.6,-3.5,-1.5,-4.4C21,9.1,18.2,8.5,15.3,8.5c-7,0,-7.8,3.6,-7.8,6.3c0,3.7,1.9,4.9,6,7.6l4.8,3.2c4,2.6,7.8,5.2,7.8,11.9C26.1,48.8,15.5,50,11,50C6.9,50,3.6,49.5,.2,48.4Zm70,-14.7c-4.1,1.2,-5.5,1.9,-6.8,2.6c-1.8,.9,-2.7,2.7,-2.7,4.9c0,1.7,.6,4.5,4.6,4.5c1.4,0,3.3,-.3,4.9,-1.4V33.7ZM62.8,50.1c-8.5,0,-9.2,-6.4,-9.2,-8.4c0,-2.3,.6,-6.4,6,-8.4C65.2,31.2,66.4,31,70.2,29.8v-1c0,-1.8,0,-2.3,-.3,-3.5C69.1,23.2,67,21.8,64.1,21.8c-2.8,0,-5.2,1.5,-6.3,3.8l-1.5,-.9c1,-3.5,4.5,-7,10.6,-7c4.4,0,7.3,1.2,9,3.9c1.3,2.1,1.4,5,1.4,8.1c0,2.7,0,5.7,-.1,8.1c0,1.7,-.1,3.1,-.1,4c0,2.2,.4,3.9,2.2,3.9c.8,0,.9,-.2,1.6,-.8l1,1.2C80.2,48.3,78.4,50,75.3,50c-2.4,0,-4.2,-1.1,-4.7,-3.1c-1.4,1.4,-3.9,3.2,-7.8,3.2Z" class="g0_1" />
</g>

</svg>
